<svg xmlns="http://www.w3.org/2000/svg" viewBox="0 0 100 100">
  <circle cx="50" cy="50" r="48" fill="#8b0000"/>
  <ellipse cx="50" cy="55" rx="30" ry="32" fill="#ff4444"/>
  <polygon points="20,35 25,10 35,35" fill="#ff4444"/>
  <polygon points="65,35 75,10 80,35" fill="#ff4444"/>
  <ellipse cx="38" cy="48" rx="7" ry="8" fill="#ffff00"/>
  <ellipse cx="62" cy="48" rx="7" ry="8" fill="#ffff00"/>
  <ellipse cx="38" cy="49" rx="3" ry="4" fill="#1a1a1a"/>
  <ellipse cx="62" cy="49" rx="3" ry="4" fill="#1a1a1a"/>
  <path d="M 35 70 Q 42 62 50 70 Q 58 62 65 70" fill="none" stroke="#1a1a1a" stroke-width="3"/>
  <path d="M 38 72 L 40 78" stroke="#ffffff" stroke-width="2"/>
  <path d="M 50 72 L 50 80" stroke="#ffffff" stroke-width="2"/>
  <path d="M 62 72 L 60 78" stroke="#ffffff" stroke-width="2"/>
  <ellipse cx="32" cy="38" rx="5" ry="2" fill="#1a1a1a" transform="rotate(-20, 32, 38)"/>
  <ellipse cx="68" cy="38" rx="5" ry="2" fill="#1a1a1a" transform="rotate(20, 68, 38)"/>
</svg>